<svg width="20" height="19" viewBox="0 0 20 19" fill="none" xmlns="http://www.w3.org/2000/svg">
<g clip-path="url(#clip0)">
<path d="M11.3503 18.9629H8.14118C7.60516 18.9629 7.16913 18.5495 7.16913 18.0412V11.1783H5.29688C4.76086 11.1783 4.32483 10.7648 4.32483 10.2567V7.31591C4.32483 6.80769 4.76086 6.39427 5.29688 6.39427H7.16913V4.92163C7.16913 3.46146 7.65271 2.21917 8.56743 1.32927C9.48628 0.43531 10.7704 -0.0371094 12.2809 -0.0371094L14.7283 -0.0333405C15.2634 -0.0324707 15.6987 0.380951 15.6987 0.888306V3.61874C15.6987 4.12697 15.2628 4.54039 14.7269 4.54039L13.0791 4.54097C12.5766 4.54097 12.4486 4.6365 12.4212 4.66578C12.3761 4.71434 12.3225 4.85162 12.3225 5.23068V6.39412H14.6031C14.7748 6.39412 14.9411 6.43427 15.0841 6.50994C15.3924 6.67331 15.5842 6.98222 15.5842 7.31606L15.5829 10.2568C15.5829 10.7648 15.1469 11.1782 14.6109 11.1782H12.3225V18.0412C12.3225 18.5495 11.8863 18.9629 11.3503 18.9629ZM8.34391 17.849H11.1475V10.6797C11.1475 10.3403 11.4388 10.0643 11.7965 10.0643H14.4082L14.4092 7.50813H11.7964C11.4386 7.50813 11.1475 7.23213 11.1475 6.89278V5.23068C11.1475 4.79552 11.1942 4.30063 11.5406 3.92867C11.9592 3.479 12.6189 3.42711 13.0788 3.42711L14.5239 3.42653V1.08023L12.28 1.07675C9.85244 1.07675 8.34391 2.55011 8.34391 4.92163V6.89278C8.34391 7.23198 8.05281 7.50813 7.69506 7.50813H5.49961V10.0643H7.69506C8.05281 10.0643 8.34391 10.3403 8.34391 10.6797V17.849ZM14.726 1.08052H14.7262H14.726Z" fill="#5C6567"/>
</g>
<defs>
<clipPath id="clip0">
<rect width="20" height="19" fill="white"/>
</clipPath>
</defs>
</svg>
