<svg width="19" height="19" viewBox="0 0 19 19" fill="none" xmlns="http://www.w3.org/2000/svg">
<path d="M13.8568 0H5.14312C2.30716 0 0 2.30716 0 5.14312V13.857C0 16.6928 2.30716 19 5.14312 19H13.857C16.6928 19 19 16.6928 19 13.857V5.14312C19 2.30716 16.6928 0 13.8568 0V0ZM17.8861 13.857C17.8861 16.0786 16.0786 17.8861 13.8568 17.8861H5.14312C2.92134 17.8861 1.11386 16.0786 1.11386 13.857V5.14312C1.11386 2.92134 2.92134 1.11386 5.14312 1.11386H13.857C16.0786 1.11386 17.8861 2.92134 17.8861 5.14312V13.857Z" fill="#5C6567"/>
<path d="M9.49997 4.30493C6.6353 4.30493 4.30481 6.63543 4.30481 9.50009C4.30481 12.3648 6.6353 14.6952 9.49997 14.6952C12.3646 14.6952 14.6951 12.3648 14.6951 9.50009C14.6951 6.63543 12.3646 4.30493 9.49997 4.30493ZM9.49997 13.5814C7.24964 13.5814 5.41867 11.7506 5.41867 9.50009C5.41867 7.24976 7.24964 5.41879 9.49997 5.41879C11.7504 5.41879 13.5813 7.24976 13.5813 9.50009C13.5813 11.7506 11.7504 13.5814 9.49997 13.5814Z" fill="#5C6567"/>
<path d="M14.8194 2.45972C13.9728 2.45972 13.2843 3.14841 13.2843 3.99482C13.2843 4.84138 13.9728 5.53008 14.8194 5.53008C15.6659 5.53008 16.3546 4.84138 16.3546 3.99482C16.3546 3.14827 15.6659 2.45972 14.8194 2.45972ZM14.8194 4.41607C14.5872 4.41607 14.3981 4.22705 14.3981 3.99482C14.3981 3.76246 14.5872 3.57358 14.8194 3.57358C15.0517 3.57358 15.2408 3.76246 15.2408 3.99482C15.2408 4.22705 15.0517 4.41607 14.8194 4.41607Z" fill="#5C6567"/>
</svg>
